<?xml version="1.0" standalone="no"?>
<!DOCTYPE svg PUBLIC "-//W3C//DTD SVG 20010904//EN"
 "http://www.w3.org/TR/2001/REC-SVG-20010904/DTD/svg10.dtd">
<svg version="1.0" xmlns="http://www.w3.org/2000/svg"
 width="2688.000000pt" height="2688.000000pt" viewBox="0 0 2688.000000 2688.000000"
 preserveAspectRatio="xMidYMid meet">
<metadata>
Created by potrace 1.14, written by Peter Selinger 2001-2017
</metadata>
<g transform="translate(0.000000,2688.000000) scale(0.100000,-0.100000)"
fill="#000000" stroke="none">
<path d="M337 16678 c-80 -11 -161 -66 -225 -153 -5 -5 -16 -35 -25 -66 -17
-52 -18 -225 -18 -2975 1 -1605 3 -2928 5 -2940 19 -93 111 -199 203 -234 l58
-22 13090 0 c7200 0 13100 3 13113 6 93 21 177 96 222 196 l24 55 1 2920 c1
2372 -1 2930 -12 2972 -12 49 -50 122 -77 148 -32 31 -87 67 -127 81 -41 16
-924 17 -13115 18 -7189 1 -13091 -2 -13117 -6z"/>
</g>
</svg>
