<svg width="168" height="41" viewBox="0 0 168 41" fill="none" xmlns="http://www.w3.org/2000/svg">
<g clip-path="url(#clip0_820_144)">
<path d="M165.378 0.213379H2.46149C1.33396 0.213379 0.419922 1.14612 0.419922 2.29671V38.13C0.419922 39.2806 1.33396 40.2134 2.46149 40.2134H165.378C166.506 40.2134 167.42 39.2806 167.42 38.13V2.29671C167.42 1.14612 166.506 0.213379 165.378 0.213379Z" fill="#8053FF"/>
<path d="M6.32904 27.1149L16.3376 14.9016H7.113V11.3816H21.7992V14.6883L11.7906 26.9016H22.0605V30.4216H6.32904V27.1149ZM33.1781 22.0483C33.0039 21.0883 32.6903 20.3594 32.2373 19.8616C31.8019 19.3638 31.131 19.1149 30.2251 19.1149C29.6329 19.1149 29.1364 19.2216 28.7356 19.4349C28.3524 19.6305 28.0388 19.8794 27.7949 20.1816C27.5685 20.4838 27.4029 20.8038 27.2984 21.1416C27.2112 21.4793 27.1589 21.7816 27.1416 22.0483H33.1781ZM27.1416 24.4483C27.1938 25.6749 27.4986 26.5639 28.0562 27.1149C28.6137 27.666 29.4151 27.9416 30.4603 27.9416C31.2094 27.9416 31.8541 27.7549 32.3941 27.3816C32.9341 26.9906 33.2652 26.5816 33.3871 26.1549H36.6536C36.131 27.8083 35.3297 28.9906 34.2495 29.7016C33.1693 30.4126 31.8627 30.7683 30.3297 30.7683C29.267 30.7683 28.3087 30.5993 27.4552 30.2616C26.6016 29.906 25.8785 29.4083 25.2862 28.7683C24.6939 28.1283 24.2321 27.3639 23.9012 26.4749C23.5876 25.586 23.4308 24.6083 23.4308 23.5416C23.4308 22.5105 23.5964 21.5506 23.9273 20.6616C24.2583 19.7727 24.7286 19.0083 25.3385 18.3683C25.9483 17.7105 26.6712 17.1949 27.5074 16.8216C28.361 16.4483 29.3017 16.2616 30.3297 16.2616C31.4795 16.2616 32.4813 16.4927 33.3349 16.9549C34.1884 17.3994 34.8854 18.0038 35.4254 18.7683C35.983 19.5327 36.3835 20.4038 36.6275 21.3816C36.8715 22.3593 36.9584 23.3816 36.8888 24.4483H27.1416ZM39.0896 16.6349H42.6174V19.1949H42.6697C42.8439 18.7683 43.079 18.3772 43.3753 18.0216C43.6715 17.6483 44.0112 17.3372 44.3944 17.0883C44.7776 16.8216 45.1872 16.6172 45.6226 16.4749C46.0581 16.3327 46.5111 16.2616 46.9815 16.2616C47.2255 16.2616 47.4954 16.306 47.7916 16.3949V19.9149C47.6174 19.8794 47.4084 19.8527 47.1644 19.8349C46.9205 19.7994 46.6853 19.7816 46.4589 19.7816C45.7794 19.7816 45.2045 19.8972 44.7341 20.1283C44.2638 20.3594 43.8806 20.6794 43.5843 21.0883C43.3057 21.4793 43.1052 21.9416 42.9833 22.4749C42.8614 23.0083 42.8004 23.586 42.8004 24.2083V30.4216H39.0896V16.6349ZM52.0797 23.5416C52.0797 24.0926 52.132 24.6349 52.2365 25.1683C52.341 25.6839 52.5152 26.1549 52.7591 26.5816C53.0204 26.9906 53.3602 27.3193 53.7783 27.5683C54.1964 27.8172 54.719 27.9416 55.3462 27.9416C55.9734 27.9416 56.496 27.8172 56.9141 27.5683C57.3496 27.3193 57.6893 26.9906 57.9333 26.5816C58.1946 26.1549 58.3775 25.6839 58.482 25.1683C58.5866 24.6349 58.6388 24.0926 58.6388 23.5416C58.6388 22.9906 58.5866 22.4483 58.482 21.9149C58.3775 21.3816 58.1946 20.9105 57.9333 20.5016C57.6893 20.0927 57.3496 19.7638 56.9141 19.5149C56.496 19.2483 55.9734 19.1149 55.3462 19.1149C54.719 19.1149 54.1964 19.2483 53.7783 19.5149C53.3602 19.7638 53.0204 20.0927 52.7591 20.5016C52.5152 20.9105 52.341 21.3816 52.2365 21.9149C52.132 22.4483 52.0797 22.9906 52.0797 23.5416ZM48.3689 23.5416C48.3689 22.4393 48.5345 21.4439 48.8655 20.5549C49.1964 19.6483 49.6668 18.8838 50.2766 18.2616C50.8864 17.6216 51.6181 17.1327 52.4717 16.7949C53.3253 16.4394 54.2836 16.2616 55.3462 16.2616C56.4088 16.2616 57.3671 16.4394 58.2207 16.7949C59.0919 17.1327 59.8321 17.6216 60.4419 18.2616C61.0518 18.8838 61.5221 19.6483 61.8531 20.5549C62.184 21.4439 62.3496 22.4393 62.3496 23.5416C62.3496 24.6439 62.184 25.6393 61.8531 26.5283C61.5221 27.4172 61.0518 28.1816 60.4419 28.8216C59.8321 29.4439 59.0919 29.9239 58.2207 30.2616C57.3671 30.5993 56.4088 30.7683 55.3462 30.7683C54.2836 30.7683 53.3253 30.5993 52.4717 30.2616C51.6181 29.9239 50.8864 29.4439 50.2766 28.8216C49.6668 28.1816 49.1964 27.4172 48.8655 26.5283C48.5345 25.6393 48.3689 24.6439 48.3689 23.5416ZM76.5301 19.0883H80.6851C81.4168 19.0883 82.0178 18.9105 82.4882 18.5549C82.9586 18.1994 83.1938 17.6216 83.1938 16.8216C83.1938 16.3772 83.1154 16.0127 82.9586 15.7283C82.8018 15.4438 82.5927 15.2216 82.3314 15.0616C82.0701 14.9016 81.7653 14.7949 81.4168 14.7416C81.0858 14.6705 80.7373 14.6349 80.3715 14.6349H76.5301V19.0883ZM72.4274 11.3816H81.2077C82.0962 11.3816 82.9063 11.4616 83.638 11.6216C84.3697 11.7816 84.9969 12.0483 85.5195 12.4216C86.0421 12.7772 86.4429 13.2572 86.7216 13.8616C87.0178 14.466 87.1658 15.2127 87.1658 16.1016C87.1658 17.0616 86.948 17.8616 86.5125 18.5016C86.0944 19.1416 85.4672 19.666 84.631 20.0749C85.7808 20.4127 86.6344 21.0083 87.192 21.8616C87.7669 22.6972 88.0543 23.7106 88.0543 24.9016C88.0543 25.8616 87.8714 26.6972 87.5055 27.4083C87.1397 28.1016 86.6432 28.6705 86.016 29.1149C85.4062 29.5593 84.7006 29.8883 83.8993 30.1016C83.1154 30.3149 82.3053 30.4216 81.469 30.4216H72.4274V11.3816ZM76.5301 27.1683H80.9203C81.321 27.1683 81.7042 27.1326 82.0701 27.0616C82.4359 26.9726 82.7583 26.8393 83.037 26.6616C83.3156 26.466 83.5335 26.2083 83.6903 25.8883C83.8644 25.5683 83.9516 25.1593 83.9516 24.6616C83.9516 23.6839 83.6815 22.9905 83.1415 22.5816C82.6015 22.1549 81.8872 21.9416 80.9987 21.9416H76.5301V27.1683ZM90.2782 20.8749C90.3305 19.986 90.5483 19.2483 90.9315 18.6616C91.3147 18.0749 91.8026 17.6038 92.3949 17.2483C92.9871 16.8927 93.6492 16.6438 94.3809 16.5016C95.13 16.3416 95.8792 16.2616 96.6283 16.2616C97.3077 16.2616 97.9959 16.3149 98.6927 16.4216C99.3895 16.5105 100.025 16.6972 100.6 16.9816C101.175 17.266 101.646 17.666 102.011 18.1816C102.377 18.6794 102.56 19.346 102.56 20.1816V27.3549C102.56 27.9772 102.595 28.5726 102.665 29.1416C102.734 29.7106 102.856 30.1372 103.031 30.4216H99.2676C99.198 30.2083 99.1369 29.9949 99.0847 29.7816C99.0498 29.5505 99.0236 29.3193 99.0063 29.0883C98.414 29.7106 97.717 30.146 96.9157 30.3949C96.1144 30.6439 95.2955 30.7683 94.4593 30.7683C93.8148 30.7683 93.2138 30.6883 92.6562 30.5283C92.0986 30.3683 91.6109 30.1193 91.1928 29.7816C90.7747 29.4439 90.4438 29.0172 90.1998 28.5016C89.9734 27.986 89.8601 27.3726 89.8601 26.6616C89.8601 25.8793 89.9907 25.2393 90.2521 24.7416C90.5307 24.226 90.8792 23.8172 91.2973 23.5149C91.7328 23.2126 92.2207 22.9906 92.7607 22.8483C93.3183 22.6883 93.8756 22.5639 94.4332 22.4749C94.9907 22.386 95.5395 22.3149 96.0795 22.2616C96.6195 22.2083 97.0986 22.1283 97.5168 22.0216C97.9349 21.9149 98.2658 21.7639 98.5098 21.5683C98.7537 21.3549 98.8668 21.0526 98.8495 20.6616C98.8495 20.2527 98.7799 19.9327 98.6404 19.7016C98.5186 19.4527 98.3442 19.266 98.1178 19.1416C97.9087 18.9994 97.6562 18.9105 97.36 18.8749C97.0813 18.8216 96.7763 18.7949 96.4453 18.7949C95.7136 18.7949 95.1387 18.9549 94.7206 19.2749C94.3025 19.5949 94.0586 20.1283 93.9889 20.8749H90.2782ZM98.8495 23.6749C98.6927 23.8172 98.4924 23.9326 98.2485 24.0216C98.022 24.0926 97.7693 24.1549 97.4906 24.2083C97.2293 24.2616 96.9506 24.306 96.6544 24.3416C96.3582 24.3772 96.0621 24.4216 95.7659 24.4749C95.4872 24.5283 95.2084 24.5993 94.9297 24.6883C94.6684 24.7772 94.4332 24.9016 94.2241 25.0616C94.0324 25.2039 93.8756 25.3906 93.7537 25.6216C93.6319 25.8526 93.5708 26.146 93.5708 26.5016C93.5708 26.8393 93.6319 27.1239 93.7537 27.3549C93.8756 27.586 94.0412 27.7726 94.2503 27.9149C94.4593 28.0393 94.7033 28.1283 94.9819 28.1816C95.2606 28.2349 95.5481 28.2616 95.8443 28.2616C96.576 28.2616 97.1421 28.1372 97.5429 27.8883C97.9436 27.6393 98.2397 27.346 98.4314 27.0083C98.6231 26.6526 98.7362 26.2972 98.7711 25.9416C98.8234 25.586 98.8495 25.3016 98.8495 25.0883V23.6749ZM105.44 16.6349H108.968V19.1949H109.021C109.195 18.7683 109.43 18.3772 109.726 18.0216C110.022 17.6483 110.362 17.3372 110.745 17.0883C111.128 16.8216 111.538 16.6172 111.973 16.4749C112.409 16.3327 112.862 16.2616 113.332 16.2616C113.576 16.2616 113.846 16.306 114.142 16.3949V19.9149C113.968 19.8794 113.759 19.8527 113.515 19.8349C113.271 19.7994 113.036 19.7816 112.81 19.7816C112.13 19.7816 111.555 19.8972 111.085 20.1283C110.615 20.3594 110.231 20.6794 109.935 21.0883C109.657 21.4793 109.456 21.9416 109.334 22.4749C109.212 23.0083 109.151 23.586 109.151 24.2083V30.4216H105.44V16.6349ZM115.597 16.6349H119.125V19.1949H119.177C119.352 18.7683 119.587 18.3772 119.883 18.0216C120.179 17.6483 120.519 17.3372 120.902 17.0883C121.285 16.8216 121.695 16.6172 122.13 16.4749C122.566 16.3327 123.019 16.2616 123.489 16.2616C123.733 16.2616 124.003 16.306 124.299 16.3949V19.9149C124.125 19.8794 123.916 19.8527 123.672 19.8349C123.428 19.7994 123.193 19.7816 122.966 19.7816C122.287 19.7816 121.712 19.8972 121.242 20.1283C120.771 20.3594 120.388 20.6794 120.092 21.0883C119.813 21.4793 119.613 21.9416 119.491 22.4749C119.369 23.0083 119.308 23.586 119.308 24.2083V30.4216H115.597V16.6349ZM129.569 14.5016H125.859V11.3816H129.569V14.5016ZM125.859 16.6349H129.569V30.4216H125.859V16.6349ZM138.789 27.1683C139.312 27.1683 139.773 27.0616 140.174 26.8483C140.575 26.6349 140.906 26.3506 141.167 25.9949C141.428 25.6393 141.62 25.2393 141.742 24.7949C141.881 24.3326 141.951 23.8526 141.951 23.3549C141.951 22.786 141.899 22.2526 141.794 21.7549C141.69 21.2393 141.516 20.786 141.272 20.3949C141.028 20.0038 140.705 19.6927 140.305 19.4616C139.904 19.2305 139.399 19.1149 138.789 19.1149C138.266 19.1149 137.813 19.2216 137.43 19.4349C137.064 19.6483 136.751 19.9416 136.489 20.3149C136.245 20.6705 136.063 21.0883 135.941 21.5683C135.836 22.0306 135.784 22.5193 135.784 23.0349C135.784 23.5326 135.827 24.0306 135.915 24.5283C136.019 25.0083 136.185 25.4439 136.411 25.8349C136.655 26.226 136.969 26.546 137.352 26.7949C137.735 27.0439 138.214 27.1683 138.789 27.1683ZM145.479 29.5416C145.479 30.0926 145.4 30.7239 145.244 31.4349C145.104 32.146 144.791 32.8039 144.303 33.4083C143.815 34.0306 143.11 34.5549 142.186 34.9816C141.263 35.4083 140.026 35.6216 138.475 35.6216C137.813 35.6216 137.134 35.5326 136.437 35.3549C135.758 35.1949 135.131 34.9372 134.556 34.5816C133.998 34.226 133.528 33.7639 133.145 33.1949C132.779 32.6439 132.57 31.9772 132.517 31.1949H136.202C136.376 31.906 136.716 32.3949 137.221 32.6616C137.726 32.946 138.31 33.0883 138.972 33.0883C140.017 33.0883 140.775 32.7683 141.245 32.1283C141.733 31.4883 141.968 30.6793 141.951 29.7016V27.8883H141.899C141.498 28.6172 140.923 29.1593 140.174 29.5149C139.442 29.8526 138.667 30.0216 137.848 30.0216C136.838 30.0216 135.967 29.8439 135.235 29.4883C134.503 29.1149 133.902 28.6172 133.432 27.9949C132.962 27.3549 132.613 26.6172 132.387 25.7816C132.178 24.9283 132.073 24.0306 132.073 23.0883C132.073 22.1993 132.195 21.346 132.439 20.5283C132.7 19.6927 133.075 18.9638 133.563 18.3416C134.05 17.7016 134.651 17.1949 135.366 16.8216C136.097 16.4483 136.934 16.2616 137.874 16.2616C138.763 16.2616 139.538 16.4305 140.2 16.7683C140.88 17.106 141.446 17.6749 141.899 18.4749H141.951V16.6349H145.479V29.5416ZM148.31 20.8749C148.362 19.986 148.58 19.2483 148.963 18.6616C149.346 18.0749 149.834 17.6038 150.426 17.2483C151.019 16.8927 151.681 16.6438 152.412 16.5016C153.161 16.3416 153.911 16.2616 154.66 16.2616C155.339 16.2616 156.027 16.3149 156.724 16.4216C157.421 16.5105 158.057 16.6972 158.632 16.9816C159.207 17.266 159.677 17.666 160.043 18.1816C160.409 18.6794 160.592 19.346 160.592 20.1816V27.3549C160.592 27.9772 160.627 28.5726 160.696 29.1416C160.766 29.7106 160.888 30.1372 161.062 30.4216H157.299C157.229 30.2083 157.168 29.9949 157.116 29.7816C157.081 29.5505 157.055 29.3193 157.038 29.0883C156.446 29.7106 155.749 30.146 154.947 30.3949C154.146 30.6439 153.327 30.7683 152.491 30.7683C151.846 30.7683 151.245 30.6883 150.688 30.5283C150.13 30.3683 149.642 30.1193 149.224 29.7816C148.806 29.4439 148.475 29.0172 148.231 28.5016C148.005 27.986 147.892 27.3726 147.892 26.6616C147.892 25.8793 148.022 25.2393 148.284 24.7416C148.562 24.226 148.911 23.8172 149.329 23.5149C149.764 23.2126 150.252 22.9906 150.792 22.8483C151.35 22.6883 151.907 22.5639 152.465 22.4749C153.022 22.386 153.571 22.3149 154.111 22.2616C154.651 22.2083 155.13 22.1283 155.548 22.0216C155.966 21.9149 156.297 21.7639 156.541 21.5683C156.785 21.3549 156.898 21.0526 156.881 20.6616C156.881 20.2527 156.811 19.9327 156.672 19.7016C156.55 19.4527 156.376 19.266 156.149 19.1416C155.94 18.9994 155.688 18.9105 155.391 18.8749C155.113 18.8216 154.808 18.7949 154.477 18.7949C153.745 18.7949 153.17 18.9549 152.752 19.2749C152.334 19.5949 152.09 20.1283 152.02 20.8749H148.31ZM156.881 23.6749C156.724 23.8172 156.524 23.9326 156.28 24.0216C156.054 24.0926 155.801 24.1549 155.522 24.2083C155.261 24.2616 154.982 24.306 154.686 24.3416C154.39 24.3772 154.094 24.4216 153.797 24.4749C153.519 24.5283 153.24 24.5993 152.961 24.6883C152.7 24.7772 152.465 24.9016 152.256 25.0616C152.064 25.2039 151.907 25.3906 151.785 25.6216C151.663 25.8526 151.602 26.146 151.602 26.5016C151.602 26.8393 151.663 27.1239 151.785 27.3549C151.907 27.586 152.073 27.7726 152.282 27.9149C152.491 28.0393 152.735 28.1283 153.013 28.1816C153.292 28.2349 153.58 28.2616 153.876 28.2616C154.607 28.2616 155.174 28.1372 155.574 27.8883C155.975 27.6393 156.271 27.346 156.463 27.0083C156.655 26.6526 156.768 26.2972 156.803 25.9416C156.855 25.586 156.881 25.3016 156.881 25.0883V23.6749Z" fill="white"/>
</g>
<defs>
<clipPath id="clip0_820_144">
<rect width="167" height="40" fill="white" transform="translate(0.419922 0.213379)"/>
</clipPath>
</defs>
</svg>
