<svg width="49" height="49" viewBox="0 0 49 49" fill="none" xmlns="http://www.w3.org/2000/svg">
<path d="M1.00003 24.5C1.00003 23.8786 1.02414 23.2629 1.07146 22.6538L0.572958 22.6151C0.671651 21.3447 0.869258 20.1021 1.15809 18.8949L1.64436 19.0112C1.93333 17.8034 2.31556 16.6319 2.78303 15.5046L2.32116 15.3131C2.80532 14.1456 3.37897 13.0245 4.03357 11.9586L4.45965 12.2202C5.10543 11.1686 5.8317 10.1717 6.6299 9.23797L6.24985 8.91307C7.06679 7.95745 7.95748 7.06676 8.9131 6.24981L9.238 6.62986C10.1717 5.83166 11.1686 5.10539 12.2202 4.45962L11.9586 4.03354C13.0246 3.37894 14.1456 2.80528 15.3131 2.32113L15.5047 2.78299C16.6319 2.31553 17.8035 1.9333 19.0113 1.64433L18.8949 1.15805C20.1021 0.869227 21.3448 0.67162 22.6152 0.572927L22.6539 1.07143C23.263 1.02411 23.8786 1 24.5 1C25.1214 1 25.7371 1.02411 26.3462 1.07143L26.3849 0.572927C27.6553 0.671621 28.8979 0.869228 30.1051 1.15805L29.9888 1.64433C31.1966 1.9333 32.3681 2.31553 33.4954 2.783L33.6869 2.32113C34.8545 2.80529 35.9755 3.37894 37.0415 4.03354L36.7798 4.45962C37.8314 5.1054 38.8284 5.83167 39.7621 6.62987L40.087 6.24981C41.0426 7.06676 41.9333 7.95745 42.7502 8.91307L42.3702 9.23797C43.1684 10.1717 43.8946 11.1686 44.5404 12.2202L44.9665 11.9586C45.6211 13.0245 46.1947 14.1456 46.6789 15.3131L46.217 15.5046C46.6845 16.6319 47.0667 17.8035 47.3557 19.0112L47.842 18.8949C48.1308 20.1021 48.3284 21.3447 48.4271 22.6151L47.9286 22.6539C47.9759 23.2629 48 23.8786 48 24.5C48 25.1214 47.9759 25.7371 47.9286 26.3462L48.4271 26.3849C48.3284 27.6553 48.1308 28.8979 47.842 30.1051L47.3557 29.9888C47.0667 31.1966 46.6845 32.3681 46.217 33.4954L46.6789 33.6869C46.1947 34.8544 45.6211 35.9755 44.9665 37.0414L44.5404 36.7798C43.8946 37.8314 43.1684 38.8283 42.3702 39.762L42.7502 40.0869C41.9333 41.0426 41.0426 41.9332 40.087 42.7502L39.7621 42.3701C38.8284 43.1683 37.8314 43.8946 36.7798 44.5404L37.0415 44.9665C35.9755 45.6211 34.8545 46.1947 33.6869 46.6789L33.4954 46.217C32.3681 46.6845 31.1966 47.0667 29.9888 47.3557L30.1051 47.8419C28.8979 48.1308 27.6553 48.3284 26.3849 48.4271L26.3462 47.9286C25.7371 47.9759 25.1214 48 24.5 48C23.8786 48 23.2629 47.9759 22.6539 47.9286L22.6152 48.4271C21.3448 48.3284 20.1021 48.1308 18.8949 47.8419L19.0113 47.3557C17.8035 47.0667 16.6319 46.6845 15.5047 46.217L15.3131 46.6789C14.1456 46.1947 13.0246 45.6211 11.9586 44.9665L12.2202 44.5404C11.1686 43.8946 10.1717 43.1683 9.238 42.3701L8.9131 42.7502C7.95748 41.9332 7.06679 41.0426 6.24984 40.0869L6.62989 39.762C5.83169 38.8283 5.10542 37.8314 4.45965 36.7798L4.03357 37.0414C3.37897 35.9755 2.80531 34.8544 2.32116 33.6869L2.78302 33.4954C2.31556 32.3681 1.93333 31.1965 1.64436 29.9888L1.15808 30.1051C0.869257 28.8979 0.671651 27.6553 0.572958 26.3849L1.07146 26.3461C1.02414 25.7371 1.00003 25.1214 1.00003 24.5Z" fill="#F2F2F2"/>
<path d="M1.00003 24.5C1.00003 23.8786 1.02414 23.2629 1.07146 22.6538L0.572958 22.6151C0.671651 21.3447 0.869258 20.1021 1.15809 18.8949L1.64436 19.0112C1.93333 17.8034 2.31556 16.6319 2.78303 15.5046L2.32116 15.3131C2.80532 14.1456 3.37897 13.0245 4.03357 11.9586L4.45965 12.2202C5.10543 11.1686 5.8317 10.1717 6.6299 9.23797L6.24985 8.91307C7.06679 7.95745 7.95748 7.06676 8.9131 6.24981L9.238 6.62986C10.1717 5.83166 11.1686 5.10539 12.2202 4.45962L11.9586 4.03354C13.0246 3.37894 14.1456 2.80528 15.3131 2.32113L15.5047 2.78299C16.6319 2.31553 17.8035 1.9333 19.0113 1.64433L18.8949 1.15805C20.1021 0.869227 21.3448 0.67162 22.6152 0.572927L22.6539 1.07143C23.263 1.02411 23.8786 1 24.5 1C25.1214 1 25.7371 1.02411 26.3462 1.07143L26.3849 0.572927C27.6553 0.671621 28.8979 0.869228 30.1051 1.15805L29.9888 1.64433C31.1966 1.9333 32.3681 2.31553 33.4954 2.783L33.6869 2.32113C34.8545 2.80529 35.9755 3.37894 37.0415 4.03354L36.7798 4.45962C37.8314 5.1054 38.8284 5.83167 39.7621 6.62987L40.087 6.24981C41.0426 7.06676 41.9333 7.95745 42.7502 8.91307L42.3702 9.23797C43.1684 10.1717 43.8946 11.1686 44.5404 12.2202L44.9665 11.9586C45.6211 13.0245 46.1947 14.1456 46.6789 15.3131L46.217 15.5046C46.6845 16.6319 47.0667 17.8035 47.3557 19.0112L47.842 18.8949C48.1308 20.1021 48.3284 21.3447 48.4271 22.6151L47.9286 22.6539C47.9759 23.2629 48 23.8786 48 24.5C48 25.1214 47.9759 25.7371 47.9286 26.3462L48.4271 26.3849C48.3284 27.6553 48.1308 28.8979 47.842 30.1051L47.3557 29.9888C47.0667 31.1966 46.6845 32.3681 46.217 33.4954L46.6789 33.6869C46.1947 34.8544 45.6211 35.9755 44.9665 37.0414L44.5404 36.7798C43.8946 37.8314 43.1684 38.8283 42.3702 39.762L42.7502 40.0869C41.9333 41.0426 41.0426 41.9332 40.087 42.7502L39.7621 42.3701C38.8284 43.1683 37.8314 43.8946 36.7798 44.5404L37.0415 44.9665C35.9755 45.6211 34.8545 46.1947 33.6869 46.6789L33.4954 46.217C32.3681 46.6845 31.1966 47.0667 29.9888 47.3557L30.1051 47.8419C28.8979 48.1308 27.6553 48.3284 26.3849 48.4271L26.3462 47.9286C25.7371 47.9759 25.1214 48 24.5 48C23.8786 48 23.2629 47.9759 22.6539 47.9286L22.6152 48.4271C21.3448 48.3284 20.1021 48.1308 18.8949 47.8419L19.0113 47.3557C17.8035 47.0667 16.6319 46.6845 15.5047 46.217L15.3131 46.6789C14.1456 46.1947 13.0246 45.6211 11.9586 44.9665L12.2202 44.5404C11.1686 43.8946 10.1717 43.1683 9.238 42.3701L8.9131 42.7502C7.95748 41.9332 7.06679 41.0426 6.24984 40.0869L6.62989 39.762C5.83169 38.8283 5.10542 37.8314 4.45965 36.7798L4.03357 37.0414C3.37897 35.9755 2.80531 34.8544 2.32116 33.6869L2.78302 33.4954C2.31556 32.3681 1.93333 31.1965 1.64436 29.9888L1.15808 30.1051C0.869257 28.8979 0.671651 27.6553 0.572958 26.3849L1.07146 26.3461C1.02414 25.7371 1.00003 25.1214 1.00003 24.5Z" stroke="#8053FF" stroke-dasharray="4 4"/>
<path d="M21.7074 28.5V27.1705L24.814 24.294C25.0782 24.0384 25.2997 23.8082 25.4787 23.6037C25.6605 23.3991 25.7983 23.1989 25.8921 23.0028C25.9858 22.804 26.0327 22.5895 26.0327 22.3594C26.0327 22.1037 25.9745 21.8835 25.858 21.6989C25.7415 21.5114 25.5824 21.3679 25.3807 21.2685C25.179 21.1662 24.9503 21.1151 24.6946 21.1151C24.4276 21.1151 24.1946 21.169 23.9958 21.277C23.7969 21.3849 23.6435 21.5398 23.5355 21.7415C23.4276 21.9432 23.3736 22.1832 23.3736 22.4616H21.6222C21.6222 21.8906 21.7515 21.3949 22.01 20.9744C22.2685 20.554 22.6307 20.2287 23.0966 19.9986C23.5625 19.7685 24.0995 19.6534 24.7074 19.6534C25.3324 19.6534 25.8765 19.7642 26.3395 19.9858C26.8054 20.2045 27.1676 20.5085 27.4262 20.8977C27.6847 21.2869 27.814 21.733 27.814 22.2358C27.814 22.5653 27.7486 22.8906 27.6179 23.2116C27.4901 23.5327 27.2614 23.8892 26.9318 24.2812C26.6023 24.6705 26.1378 25.1378 25.5384 25.6832L24.2642 26.9318V26.9915H27.929V28.5H21.7074Z" fill="#8053FF"/>
</svg>
