<svg width="49" height="49" viewBox="0 0 49 49" fill="none" xmlns="http://www.w3.org/2000/svg">
<path d="M1 24.5C1 23.8786 1.02411 23.2629 1.07143 22.6538L0.572927 22.6151C0.671621 21.3447 0.869228 20.1021 1.15805 18.8949L1.64433 19.0112C1.9333 17.8034 2.31553 16.6319 2.783 15.5046L2.32113 15.3131C2.80529 14.1456 3.37894 13.0245 4.03354 11.9586L4.45962 12.2202C5.1054 11.1686 5.83167 10.1717 6.62987 9.23797L6.24981 8.91307C7.06676 7.95745 7.95745 7.06676 8.91307 6.24981L9.23797 6.62986C10.1717 5.83166 11.1686 5.10539 12.2202 4.45962L11.9586 4.03354C13.0245 3.37894 14.1456 2.80528 15.3131 2.32113L15.5046 2.78299C16.6319 2.31553 17.8035 1.9333 19.0112 1.64433L18.8949 1.15805C20.1021 0.869227 21.3447 0.67162 22.6151 0.572927L22.6539 1.07143C23.2629 1.02411 23.8786 1 24.5 1C25.1214 1 25.7371 1.02411 26.3462 1.07143L26.3849 0.572927C27.6553 0.671621 28.8979 0.869228 30.1051 1.15805L29.9888 1.64433C31.1966 1.9333 32.3681 2.31553 33.4954 2.783L33.6869 2.32113C34.8544 2.80529 35.9755 3.37894 37.0414 4.03354L36.7798 4.45962C37.8314 5.1054 38.8283 5.83167 39.762 6.62987L40.0869 6.24981C41.0426 7.06676 41.9332 7.95745 42.7502 8.91307L42.3701 9.23797C43.1683 10.1717 43.8946 11.1686 44.5404 12.2202L44.9665 11.9586C45.6211 13.0245 46.1947 14.1456 46.6789 15.3131L46.217 15.5046C46.6845 16.6319 47.0667 17.8035 47.3557 19.0112L47.8419 18.8949C48.1308 20.1021 48.3284 21.3447 48.4271 22.6151L47.9286 22.6539C47.9759 23.2629 48 23.8786 48 24.5C48 25.1214 47.9759 25.7371 47.9286 26.3462L48.4271 26.3849C48.3284 27.6553 48.1308 28.8979 47.8419 30.1051L47.3557 29.9888C47.0667 31.1966 46.6845 32.3681 46.217 33.4954L46.6789 33.6869C46.1947 34.8544 45.6211 35.9755 44.9665 37.0414L44.5404 36.7798C43.8946 37.8314 43.1683 38.8283 42.3701 39.762L42.7502 40.0869C41.9332 41.0426 41.0425 41.9332 40.0869 42.7502L39.762 42.3701C38.8283 43.1683 37.8314 43.8946 36.7798 44.5404L37.0414 44.9665C35.9755 45.6211 34.8544 46.1947 33.6869 46.6789L33.4954 46.217C32.3681 46.6845 31.1965 47.0667 29.9888 47.3557L30.1051 47.8419C28.8979 48.1308 27.6553 48.3284 26.3849 48.4271L26.3461 47.9286C25.7371 47.9759 25.1214 48 24.5 48C23.8786 48 23.2629 47.9759 22.6538 47.9286L22.6151 48.4271C21.3447 48.3284 20.1021 48.1308 18.8949 47.8419L19.0112 47.3557C17.8034 47.0667 16.6319 46.6845 15.5046 46.217L15.3131 46.6789C14.1456 46.1947 13.0245 45.6211 11.9586 44.9665L12.2202 44.5404C11.1686 43.8946 10.1717 43.1683 9.23797 42.3701L8.91307 42.7502C7.95745 41.9332 7.06676 41.0426 6.24981 40.0869L6.62986 39.762C5.83166 38.8283 5.10539 37.8314 4.45962 36.7798L4.03354 37.0414C3.37894 35.9755 2.80528 34.8544 2.32113 33.6869L2.78299 33.4954C2.31553 32.3681 1.9333 31.1965 1.64433 29.9888L1.15805 30.1051C0.869227 28.8979 0.67162 27.6553 0.572927 26.3849L1.07143 26.3461C1.02411 25.7371 1 25.1214 1 24.5Z" fill="#F2F2F2"/>
<path d="M1 24.5C1 23.8786 1.02411 23.2629 1.07143 22.6538L0.572927 22.6151C0.671621 21.3447 0.869228 20.1021 1.15805 18.8949L1.64433 19.0112C1.9333 17.8034 2.31553 16.6319 2.783 15.5046L2.32113 15.3131C2.80529 14.1456 3.37894 13.0245 4.03354 11.9586L4.45962 12.2202C5.1054 11.1686 5.83167 10.1717 6.62987 9.23797L6.24981 8.91307C7.06676 7.95745 7.95745 7.06676 8.91307 6.24981L9.23797 6.62986C10.1717 5.83166 11.1686 5.10539 12.2202 4.45962L11.9586 4.03354C13.0245 3.37894 14.1456 2.80528 15.3131 2.32113L15.5046 2.78299C16.6319 2.31553 17.8035 1.9333 19.0112 1.64433L18.8949 1.15805C20.1021 0.869227 21.3447 0.67162 22.6151 0.572927L22.6539 1.07143C23.2629 1.02411 23.8786 1 24.5 1C25.1214 1 25.7371 1.02411 26.3462 1.07143L26.3849 0.572927C27.6553 0.671621 28.8979 0.869228 30.1051 1.15805L29.9888 1.64433C31.1966 1.9333 32.3681 2.31553 33.4954 2.783L33.6869 2.32113C34.8544 2.80529 35.9755 3.37894 37.0414 4.03354L36.7798 4.45962C37.8314 5.1054 38.8283 5.83167 39.762 6.62987L40.0869 6.24981C41.0426 7.06676 41.9332 7.95745 42.7502 8.91307L42.3701 9.23797C43.1683 10.1717 43.8946 11.1686 44.5404 12.2202L44.9665 11.9586C45.6211 13.0245 46.1947 14.1456 46.6789 15.3131L46.217 15.5046C46.6845 16.6319 47.0667 17.8035 47.3557 19.0112L47.8419 18.8949C48.1308 20.1021 48.3284 21.3447 48.4271 22.6151L47.9286 22.6539C47.9759 23.2629 48 23.8786 48 24.5C48 25.1214 47.9759 25.7371 47.9286 26.3462L48.4271 26.3849C48.3284 27.6553 48.1308 28.8979 47.8419 30.1051L47.3557 29.9888C47.0667 31.1966 46.6845 32.3681 46.217 33.4954L46.6789 33.6869C46.1947 34.8544 45.6211 35.9755 44.9665 37.0414L44.5404 36.7798C43.8946 37.8314 43.1683 38.8283 42.3701 39.762L42.7502 40.0869C41.9332 41.0426 41.0425 41.9332 40.0869 42.7502L39.762 42.3701C38.8283 43.1683 37.8314 43.8946 36.7798 44.5404L37.0414 44.9665C35.9755 45.6211 34.8544 46.1947 33.6869 46.6789L33.4954 46.217C32.3681 46.6845 31.1965 47.0667 29.9888 47.3557L30.1051 47.8419C28.8979 48.1308 27.6553 48.3284 26.3849 48.4271L26.3461 47.9286C25.7371 47.9759 25.1214 48 24.5 48C23.8786 48 23.2629 47.9759 22.6538 47.9286L22.6151 48.4271C21.3447 48.3284 20.1021 48.1308 18.8949 47.8419L19.0112 47.3557C17.8034 47.0667 16.6319 46.6845 15.5046 46.217L15.3131 46.6789C14.1456 46.1947 13.0245 45.6211 11.9586 44.9665L12.2202 44.5404C11.1686 43.8946 10.1717 43.1683 9.23797 42.3701L8.91307 42.7502C7.95745 41.9332 7.06676 41.0426 6.24981 40.0869L6.62986 39.762C5.83166 38.8283 5.10539 37.8314 4.45962 36.7798L4.03354 37.0414C3.37894 35.9755 2.80528 34.8544 2.32113 33.6869L2.78299 33.4954C2.31553 32.3681 1.9333 31.1965 1.64433 29.9888L1.15805 30.1051C0.869227 28.8979 0.67162 27.6553 0.572927 26.3849L1.07143 26.3461C1.02411 25.7371 1 25.1214 1 24.5Z" stroke="#8053FF" stroke-dasharray="4 4"/>
<path d="M23.9332 28.6193C23.2969 28.6193 22.7301 28.5099 22.233 28.2912C21.7386 28.0696 21.348 27.7656 21.0611 27.3793C20.777 26.9901 20.6307 26.5412 20.6222 26.0327H22.4801C22.4915 26.2457 22.5611 26.4332 22.6889 26.5952C22.8196 26.7543 22.9929 26.8778 23.2088 26.9659C23.4247 27.054 23.6676 27.098 23.9375 27.098C24.2188 27.098 24.4673 27.0483 24.6832 26.9489C24.8991 26.8494 25.0682 26.7116 25.1903 26.5355C25.3125 26.3594 25.3736 26.1562 25.3736 25.9261C25.3736 25.6932 25.3082 25.4872 25.1776 25.3082C25.0497 25.1264 24.8651 24.9844 24.6236 24.8821C24.3849 24.7798 24.1009 24.7287 23.7713 24.7287H22.9574V23.3736H23.7713C24.0497 23.3736 24.2955 23.3253 24.5085 23.2287C24.7244 23.1321 24.892 22.9986 25.0114 22.8281C25.1307 22.6548 25.1903 22.4531 25.1903 22.223C25.1903 22.0043 25.1378 21.8125 25.0327 21.6477C24.9304 21.4801 24.7855 21.3494 24.598 21.2557C24.4134 21.1619 24.1974 21.1151 23.9503 21.1151C23.7003 21.1151 23.4716 21.1605 23.2642 21.2514C23.0568 21.3395 22.8906 21.4659 22.7656 21.6307C22.6406 21.7955 22.5739 21.9886 22.5653 22.2102H20.7969C20.8054 21.7074 20.9489 21.2642 21.2273 20.8807C21.5057 20.4972 21.8807 20.1974 22.3523 19.9815C22.8267 19.7628 23.3622 19.6534 23.9588 19.6534C24.5611 19.6534 25.0881 19.7628 25.5398 19.9815C25.9915 20.2003 26.3423 20.4957 26.5923 20.8679C26.8452 21.2372 26.9702 21.652 26.9673 22.1122C26.9702 22.6009 26.8182 23.0085 26.5114 23.3352C26.2074 23.6619 25.8111 23.8693 25.3224 23.9574V24.0256C25.9645 24.108 26.4531 24.331 26.7884 24.6946C27.1264 25.0554 27.294 25.5071 27.2912 26.0497C27.294 26.5469 27.1506 26.9886 26.8608 27.375C26.5739 27.7614 26.1776 28.0653 25.6719 28.2869C25.1662 28.5085 24.5866 28.6193 23.9332 28.6193Z" fill="#8053FF"/>
</svg>
