<svg width="48" height="49" viewBox="0 0 48 49" fill="none" xmlns="http://www.w3.org/2000/svg">
<path d="M0.5 24.5C0.5 23.8786 0.524108 23.2629 0.571425 22.6538L0.0729274 22.6151C0.171621 21.3447 0.369228 20.1021 0.658055 18.8949L1.14433 19.0112C1.4333 17.8034 1.81553 16.6319 2.283 15.5046L1.82113 15.3131C2.30529 14.1456 2.87894 13.0245 3.53354 11.9586L3.95962 12.2202C4.6054 11.1686 5.33167 10.1717 6.12987 9.23797L5.74981 8.91307C6.56676 7.95745 7.45745 7.06676 8.41307 6.24981L8.73797 6.62986C9.67167 5.83166 10.6686 5.10539 11.7202 4.45962L11.4586 4.03354C12.5245 3.37894 13.6456 2.80528 14.8131 2.32113L15.0046 2.78299C16.1319 2.31553 17.3035 1.9333 18.5112 1.64433L18.3949 1.15805C19.6021 0.869227 20.8447 0.67162 22.1151 0.572927L22.1539 1.07143C22.7629 1.02411 23.3786 1 24 1C24.6214 1 25.2371 1.02411 25.8462 1.07143L25.8849 0.572927C27.1553 0.671621 28.3979 0.869228 29.6051 1.15805L29.4888 1.64433C30.6966 1.9333 31.8681 2.31553 32.9954 2.783L33.1869 2.32113C34.3544 2.80529 35.4755 3.37894 36.5414 4.03354L36.2798 4.45962C37.3314 5.1054 38.3283 5.83167 39.262 6.62987L39.5869 6.24981C40.5426 7.06676 41.4332 7.95745 42.2502 8.91307L41.8701 9.23797C42.6683 10.1717 43.3946 11.1686 44.0404 12.2202L44.4665 11.9586C45.1211 13.0245 45.6947 14.1456 46.1789 15.3131L45.717 15.5046C46.1845 16.6319 46.5667 17.8035 46.8557 19.0112L47.3419 18.8949C47.6308 20.1021 47.8284 21.3447 47.9271 22.6151L47.4286 22.6539C47.4759 23.2629 47.5 23.8786 47.5 24.5C47.5 25.1214 47.4759 25.7371 47.4286 26.3462L47.9271 26.3849C47.8284 27.6553 47.6308 28.8979 47.3419 30.1051L46.8557 29.9888C46.5667 31.1966 46.1845 32.3681 45.717 33.4954L46.1789 33.6869C45.6947 34.8544 45.1211 35.9755 44.4665 37.0414L44.0404 36.7798C43.3946 37.8314 42.6683 38.8283 41.8701 39.762L42.2502 40.0869C41.4332 41.0426 40.5425 41.9332 39.5869 42.7502L39.262 42.3701C38.3283 43.1683 37.3314 43.8946 36.2798 44.5404L36.5414 44.9665C35.4755 45.6211 34.3544 46.1947 33.1869 46.6789L32.9954 46.217C31.8681 46.6845 30.6965 47.0667 29.4888 47.3557L29.6051 47.8419C28.3979 48.1308 27.1553 48.3284 25.8849 48.4271L25.8461 47.9286C25.2371 47.9759 24.6214 48 24 48C23.3786 48 22.7629 47.9759 22.1538 47.9286L22.1151 48.4271C20.8447 48.3284 19.6021 48.1308 18.3949 47.8419L18.5112 47.3557C17.3034 47.0667 16.1319 46.6845 15.0046 46.217L14.8131 46.6789C13.6456 46.1947 12.5245 45.6211 11.4586 44.9665L11.7202 44.5404C10.6686 43.8946 9.67167 43.1683 8.73797 42.3701L8.41307 42.7502C7.45745 41.9332 6.56676 41.0426 5.74981 40.0869L6.12986 39.762C5.33166 38.8283 4.60539 37.8314 3.95962 36.7798L3.53354 37.0414C2.87894 35.9755 2.30528 34.8544 1.82113 33.6869L2.28299 33.4954C1.81553 32.3681 1.4333 31.1965 1.14433 29.9888L0.658054 30.1051C0.369227 28.8979 0.17162 27.6553 0.0729271 26.3849L0.571425 26.3461C0.524108 25.7371 0.5 25.1214 0.5 24.5Z" fill="#F2F2F2"/>
<path d="M0.5 24.5C0.5 23.8786 0.524108 23.2629 0.571425 22.6538L0.0729274 22.6151C0.171621 21.3447 0.369228 20.1021 0.658055 18.8949L1.14433 19.0112C1.4333 17.8034 1.81553 16.6319 2.283 15.5046L1.82113 15.3131C2.30529 14.1456 2.87894 13.0245 3.53354 11.9586L3.95962 12.2202C4.6054 11.1686 5.33167 10.1717 6.12987 9.23797L5.74981 8.91307C6.56676 7.95745 7.45745 7.06676 8.41307 6.24981L8.73797 6.62986C9.67167 5.83166 10.6686 5.10539 11.7202 4.45962L11.4586 4.03354C12.5245 3.37894 13.6456 2.80528 14.8131 2.32113L15.0046 2.78299C16.1319 2.31553 17.3035 1.9333 18.5112 1.64433L18.3949 1.15805C19.6021 0.869227 20.8447 0.67162 22.1151 0.572927L22.1539 1.07143C22.7629 1.02411 23.3786 1 24 1C24.6214 1 25.2371 1.02411 25.8462 1.07143L25.8849 0.572927C27.1553 0.671621 28.3979 0.869228 29.6051 1.15805L29.4888 1.64433C30.6966 1.9333 31.8681 2.31553 32.9954 2.783L33.1869 2.32113C34.3544 2.80529 35.4755 3.37894 36.5414 4.03354L36.2798 4.45962C37.3314 5.1054 38.3283 5.83167 39.262 6.62987L39.5869 6.24981C40.5426 7.06676 41.4332 7.95745 42.2502 8.91307L41.8701 9.23797C42.6683 10.1717 43.3946 11.1686 44.0404 12.2202L44.4665 11.9586C45.1211 13.0245 45.6947 14.1456 46.1789 15.3131L45.717 15.5046C46.1845 16.6319 46.5667 17.8035 46.8557 19.0112L47.3419 18.8949C47.6308 20.1021 47.8284 21.3447 47.9271 22.6151L47.4286 22.6539C47.4759 23.2629 47.5 23.8786 47.5 24.5C47.5 25.1214 47.4759 25.7371 47.4286 26.3462L47.9271 26.3849C47.8284 27.6553 47.6308 28.8979 47.3419 30.1051L46.8557 29.9888C46.5667 31.1966 46.1845 32.3681 45.717 33.4954L46.1789 33.6869C45.6947 34.8544 45.1211 35.9755 44.4665 37.0414L44.0404 36.7798C43.3946 37.8314 42.6683 38.8283 41.8701 39.762L42.2502 40.0869C41.4332 41.0426 40.5425 41.9332 39.5869 42.7502L39.262 42.3701C38.3283 43.1683 37.3314 43.8946 36.2798 44.5404L36.5414 44.9665C35.4755 45.6211 34.3544 46.1947 33.1869 46.6789L32.9954 46.217C31.8681 46.6845 30.6965 47.0667 29.4888 47.3557L29.6051 47.8419C28.3979 48.1308 27.1553 48.3284 25.8849 48.4271L25.8461 47.9286C25.2371 47.9759 24.6214 48 24 48C23.3786 48 22.7629 47.9759 22.1538 47.9286L22.1151 48.4271C20.8447 48.3284 19.6021 48.1308 18.3949 47.8419L18.5112 47.3557C17.3034 47.0667 16.1319 46.6845 15.0046 46.217L14.8131 46.6789C13.6456 46.1947 12.5245 45.6211 11.4586 44.9665L11.7202 44.5404C10.6686 43.8946 9.67167 43.1683 8.73797 42.3701L8.41307 42.7502C7.45745 41.9332 6.56676 41.0426 5.74981 40.0869L6.12986 39.762C5.33166 38.8283 4.60539 37.8314 3.95962 36.7798L3.53354 37.0414C2.87894 35.9755 2.30528 34.8544 1.82113 33.6869L2.28299 33.4954C1.81553 32.3681 1.4333 31.1965 1.14433 29.9888L0.658054 30.1051C0.369227 28.8979 0.17162 27.6553 0.0729271 26.3849L0.571425 26.3461C0.524108 25.7371 0.5 25.1214 0.5 24.5Z" stroke="#8053FF" stroke-dasharray="4 4"/>
<path d="M25.5687 19.7727V28.5H23.7235V21.5241H23.6724L21.6738 22.777V21.1406L23.8343 19.7727H25.5687Z" fill="#8053FF"/>
</svg>
